<svg id="レイヤー_1" data-name="レイヤー 1" xmlns="http://www.w3.org/2000/svg" viewBox="0 0 713.07 94.89"><defs><style>.cls-1{fill:#363636;}</style></defs><title>アートボード 1</title><path class="cls-1" d="M11.45,92.61l17.86-91H98L94.39,20.46H45.64L41.73,40.35h45.5L83.59,59.2H38L31.45,92.61Z"/><path class="cls-1" d="M92.7,65.18q0-17.81,11.77-29.71a38.94,38.94,0,0,1,28.79-11.9q14,0,22.23,8t8.19,20.35q0,18.2-11.25,30T123.38,93.65q-14.56,0-22.62-8T92.7,65.18Zm18.85-3.38q0,7.15,3.7,11t10.85,3.9q7,0,12.87-6.37t5.85-16.25a14,14,0,0,0-3.51-9.75q-3.51-3.9-10-3.9-7.54,0-13.65,6A20.58,20.58,0,0,0,111.55,61.8Z"/><path class="cls-1" d="M166.28,92.61,178.69,25h18l-.47,2.56a11,11,0,0,1,4.42-2.68,17.51,17.51,0,0,1,6.24-1.18q4.81,0,7.28,1.43a11.46,11.46,0,0,1,4.16,4.42L206.24,42.82a5.84,5.84,0,0,0-4.94-2.21q-5.45,0-8.88,7.7l-8.13,44.3Z"/><path class="cls-1" d="M266,69.6l10.27,10.92a33.92,33.92,0,0,1-14.1,10.33,51,51,0,0,1-17.88,2.92q-13.13,0-21.52-8.12t-8.38-21.12q0-17.94,11.57-29.57t29-11.64q12.22,0,18.85,5.07t6.63,15.08q0,11.57-10.6,18.14t-26.06,6.57a65.81,65.81,0,0,1-10-.78q2.47,9.49,13.91,9.49A25.7,25.7,0,0,0,266,69.6ZM254.16,40.22A20.6,20.6,0,0,0,243,43.41a19.47,19.47,0,0,0-7.54,8.65q1.82.13,5.33.13,9.49,0,15.14-1.88t5.66-4.87Q261.57,40.23,254.16,40.22Z"/><path class="cls-1" d="M358.81,25,327.29,58.25l19.43,34.36H326.83l-11.9-20.84L296.15,92.61H274l32.61-35.32L288.22,25H308.5l10.62,18.78L336.45,25Z"/><path class="cls-1" d="M353.34,92.61l17.81-91h17.1l20.6,43.16L444.48,1.61h20.28l-17.83,91h-20l11-55.89L406.36,73.94h-5.23l-17-36.32-10.81,55Z"/><path class="cls-1" d="M516.24,69.6l10.27,10.92A33.93,33.93,0,0,1,512.4,90.86a51,51,0,0,1-17.87,2.92q-13.13,0-21.51-8.12t-8.39-21.12q0-17.94,11.57-29.57t29-11.64q12.22,0,18.85,5.07t6.63,15.08q0,11.57-10.59,18.14T494,68.17a65.81,65.81,0,0,1-10-.78q2.47,9.49,13.91,9.49A25.7,25.7,0,0,0,516.24,69.6ZM504.41,40.22a20.6,20.6,0,0,0-11.18,3.19,19.48,19.48,0,0,0-7.54,8.65q1.82.13,5.33.13,9.49,0,15.14-1.88t5.66-4.87Q511.82,40.23,504.41,40.22Z"/><path class="cls-1" d="M631.65,47.65l-8.87,45h-18L612.6,53a33.57,33.57,0,0,0,.48-4.42q.26-7.93-6.46-7.94-7.23,0-12.14,8.21l-8.25,43.79h-18l8.18-42.77a9.61,9.61,0,0,0-.9-6.56,5.37,5.37,0,0,0-5-2.67q-8.12,0-12.76,8.34l-8,43.66h-18L544.11,25h18l-.82,4.48q6-5.78,16.48-5.78,10,0,15.19,7.28a29,29,0,0,1,8.89-5.65,32.58,32.58,0,0,1,11.23-1.62q8.84,0,13.84,4.49t5.14,12.95A49,49,0,0,1,631.65,47.65Z"/><path class="cls-1" d="M637.39,65.18q0-17.81,11.77-29.71A38.94,38.94,0,0,1,678,23.58q14,0,22.23,8t8.19,20.35q0,18.2-11.25,30T668.07,93.65q-14.56,0-22.62-8T637.39,65.18Zm18.85-3.38q0,7.15,3.71,11t10.85,3.9q7,0,12.87-6.37t5.85-16.25A14,14,0,0,0,686,44.38q-3.51-3.9-10-3.9-7.54,0-13.65,6A20.58,20.58,0,0,0,656.24,61.8Z"/></svg>